<?xml version="1.0" encoding="UTF-8"?>
<svg width="195.08" height="360.71" version="1.1" viewBox="0 0 195.08 360.71" xmlns="http://www.w3.org/2000/svg" xmlns:cc="http://creativecommons.org/ns#" xmlns:dc="http://purl.org/dc/elements/1.1/" xmlns:rdf="http://www.w3.org/1999/02/22-rdf-syntax-ns#">
 <metadata>
  <rdf:RDF>
   <cc:Work rdf:about="">
    <dc:format>image/svg+xml</dc:format>
    <dc:type rdf:resource="http://purl.org/dc/dcmitype/StillImage"/>
    <dc:title/>
   </cc:Work>
  </rdf:RDF>
 </metadata>
 <g transform="translate(-129.14 -106.29)">
  <rect x="218.15" y="348.42" width="64.54" height="113.33" fill="#a0a0a0" opacity=".996"/>
 </g>
 <g transform="translate(-129.14 -106.29)">
  <path d="m182.85 143.38-45.627 69.848-8.0809-6.8022 45.179-77.698z" fill="#b4b4b4"/>
  <path d="m286.2 175.12 0.83384-22.438-44.118 79.442 0.30322 17.283z" fill="#dcdcdc"/>
  <path d="m174.32 128.72 0.83384-22.438-44.118 79.442 0.30322 17.283z" fill="#dcdcdc"/>
 </g>
 <g transform="translate(-129.14 -106.29)">
  <rect x="143.65" y="224.27" width="30.874" height="127.57" fill="#646464" opacity=".996"/>
 </g>
 <g transform="translate(-129.14 -106.29)">
  <path d="m260 355.51c-1.6129-0.70282-3.2499-1.1164-4.8828-1.2666-1.633-0.15018-3.262-0.0369-4.8592 0.31387-1.5972 0.35083-3.1624 0.93925-4.668 1.7394-1.5055 0.8002-2.9512 1.8122-4.3092 3.0101-2.716 2.3959-5.0811 5.4426-6.872 8.8407-1.7909 3.3981-3.0076 7.1475-3.4266 10.949l1.6008 85.246 47.078-2.6371-2.5478-77.251s-1.4416-22.115-17.113-28.943" fill="#bebebe"/>
 </g>
 <g transform="translate(-129.14 -106.29)" fill="#a0a0a0">
  <rect x="231.63" y="380.99" width="8.4411" height="18.031" opacity=".996"/>
  <rect x="250.9" y="392.65" width="5.6127" height="6.2314" opacity=".996"/>
  <rect x="260.22" y="384.7" width="7.8666" height="14.54" opacity=".996"/>
  <rect x="234.63" y="432.78" width="6.2756" height="10.783" opacity=".996"/>
  <rect x="265.97" y="438" width="2.5633" height="5.5243" opacity=".996"/>
 </g>
 <g transform="translate(-129.14 -106.29)">
  <path d="m188.23 466.99 44.345-2.6478-1.6008-85.246s1.7113-14.062 7.1429-19.494c5.4315-5.4316 9.9405-8.8563 17.058-8.6686 6.7633 0.17839 9.7834 1.8342 17.765 9.8161 7.9819 7.9819 7.8851 29.805 7.8851 29.805l1.858 71.188 41.533-2.6939-4.4024-108.97-134.82-6.5476z" fill="#c8c8c8"/>
 </g>
 <g transform="translate(-129.14 -106.29)">
  <path d="m185 343.53 3.2377 123.46-52.83-10.197-0.21045-90.282z" fill="#f0f0f0"/>
 </g>
 <g transform="translate(-129.14 -106.29)">
  <path d="m185 343.53-1.5625-5.2083 139.81 7.4405-3.4226 4.3155z" fill="#b4b4b4" opacity=".996"/>
 </g>
 <g transform="translate(-129.14 -106.29)">
  <rect x="213.57" y="200.03" width="63.533" height="31.337" fill="#828282" opacity=".996"/>
 </g>
 <g transform="translate(-129.14 -106.29)">
  <g opacity=".999">
   <path d="m183.43 338.33 3.0506-5.6548-51.449 27.845-1.9466 2.9989z" fill="#f5f5f5"/>
  </g>
  <g>
   <path d="m183.43 338.33-50.345 25.189 2.1045 2.9989 49.803-22.979z" fill="#b4b4b4"/>
  </g>
  <path d="m154.8 347.98-0.42881-103.02s-0.14564-19.748 3.1154-19.971c1.8174-0.12439 2.4592-1.7908 2.4592-1.7908l-16.295 1.072 8.5762 126.93z" fill="#d2d2d2"/>
  <g>
   <path d="m183.43 338.33 3.0506-5.6548 130.65 7.5893 6.1012 5.506z" fill="#f0f0f0"/>
  </g>
  <g>
   <path d="m242.99 335.69-9.1446-15.917-2.6292-88.993 8.5033-7.2552 3.2704 112.16" fill="#8c8c8c"/>
   <path d="m281.61 338.16-9.5281-13.85-5.0193-88.833 9.5976-5.6803z" fill="#8c8c8c"/>
   <path d="m230.65 227.55 0.0398-1.9121s-0.61432-7.8888-2.4972-11.229c-0.50642-0.89846-2.2361-2.1385-2.2361-2.1385s-2.0348 1.5161-2.618 2.5986c-1.8184 3.3756-2.4147 6.0571-2.2753 11.276 0.27885 10.437 2.8403 93.856 2.8403 93.856l10.046 0.0363-2.7418-89.26z" fill="#505050"/>
   <path d="m269.78 232.1-0.47806-2.4698c-1.1197-5.5687-2.4636-9.6577-6.0165-12.944-3.6147 2.8503-6.2982 9.1726-6.2699 13.549 0.27885 10.437 6.018 94.315 6.018 94.315l10.046 0.0363-3.1203-91.392z" fill="#505050"/>
  </g>
  <g fill="#c8c8c8">
   <path d="m186.49 332.67-2.6314-118.25 37.035 5.0381 3.6239 115.61 18.473 0.61872-3.2704-112.16 19.092 2.6516 5.0381 110.75 17.766 1.2374-4.9498-108.36 32.88 4.0659 7.5979 106.4-35.617-2.0985z"/>
   <path d="m182.52 209.98 0.32161-66.598 122.25 25 3.25 61.188-32.479-3.6553c-0.49291-8.7982-2.783-13.484-8.8958-17.282-8.3383 3.3599-8.2203 6.7692-8.7819 13.658l-19.092-2.6516s-0.68872-5.6316-3.2512-9.8191-7.25-7-7.25-7-4.8125 2-6.1875 5.875-1.3716 5.9676-1.3716 5.9676z"/>
  </g>
  <g fill="#a0a0a0">
   <path d="m242.99 335.69-7.2028-15.686h-11.875l0.60464 15.067z"/>
   <path d="m263.85 336.93 17.766 1.2374-8.5322-13.572-10.039-0.5577z"/>
  </g>
  <g>
   <g fill="#b4b4b4">
    <path d="m183.85 214.42-2.6516-4.6846 39.834 4.9229-0.14767 4.7998z"/>
    <path d="m239.72 223.52-0.61872-3.8891 19.092 2.6516 0.61872 3.8891z"/>
    <path d="m276.66 229.8-0.7955-3.8891 35.886 4.0659-2.2097 3.8891z"/>
   </g>
   <path d="m276.66 229.8-6.643 3.9388-1.0098-2.7506 6.8572-5.0773z" fill="#787878"/>
   <path d="m239.72 223.52-8.5033 7.2552-1.2332-2.6871 9.1179-8.4572z" fill="#787878"/>
  </g>
 </g>
 <g transform="translate(-129.14 -106.29)">
  <path d="m182.85 143.38-8.5287-14.653 140.99 28.957-10.216 10.696z" fill="#b4b4b4"/>
  <path d="m174.32 128.72 0.83384-22.438 134.02 30.7 0.0758 19.444z" fill="#c8c8c8"/>
 </g>
 <g transform="translate(-129.14 -106.29)">
  <path d="m185.84 126.55-0.2144-11.899 115.67 25.353 0.0536 11.149z" fill="#d2d2d2"/>
 </g>
 <g transform="translate(-129.14 -106.29)" fill="#f0f0f0">
  <path d="m186.49 332.67-2.6314-118.25-23.908 27 0.70601 105.43-8.4246 4.346-1.5008-99.484-14.151 16.295 0.35301 91.545z"/>
  <path d="m182.52 209.98 0.32161-66.598-45.627 69.848-0.21441 49.849 13.615-15.223s0.11523-23.408 5.1296-23.127c2.3649 0.13279 4.0162 10.967 3.7671 11.704-0.25047 0.74107 23.008-26.453 23.008-26.453z"/>
 </g>
 <g transform="translate(-129.14 -106.29)">
  <path d="m152.14 351.36 8.6061-15.593 0.0189 10.821z" fill="#e6e6e6"/>
 </g>
 <g transform="translate(-129.14 -106.29)" fill="#c8c8c8">
  <path d="m183.85 214.42-23.908 27-3.6985-2.144 26.277-29.3z"/>
  <path d="m150.73 251.71-0.10721-3.8593-15.812 17.313 1.7688 2.8409z"/>
 </g>
 <g transform="translate(-129.14 -106.29)" fill="#b4b4b4">
  <path d="m190.51 121.78s-0.71507 0.32525-1.4699 0.20002c-0.74762-0.12405-1.5762-0.30973-1.4798-1.3584 0.0963-1.0486 1.228-1.119 1.228-1.119s0.82685-0.0134 1.3788 0.21095c0.55199 0.22439 0.5602 0.27996 0.5602 0.27996z"/>
  <path d="m190.73 119.99s-0.30623-0.73163-0.1742-1.5103c0.13073-0.77131 0.32255-1.6267 1.3401-1.542 1.0176 0.0848 1.0704 1.2488 1.0704 1.2488s2e-3 0.85097-0.22383 1.4223c-0.22559 0.57129-0.27971 0.5805-0.27971 0.5805z"/>
  <path d="m192.47 120.19s0.71507-0.32526 1.4698-0.20002c0.74764 0.12405 1.5762 0.30972 1.4798 1.3584-0.0963 1.0486-1.228 1.119-1.228 1.119s-0.82686 0.0134-1.3788-0.21094c-0.55199-0.2244-0.5602-0.27997-0.5602-0.27997z"/>
  <path d="m192.25 121.98s0.30623 0.73163 0.1742 1.5103c-0.13073 0.77131-0.32255 1.6267-1.3401 1.542-1.0176-0.0848-1.0704-1.2488-1.0704-1.2488s-2e-3 -0.85097 0.22383-1.4223c0.22559-0.57129 0.27971-0.5805 0.27971-0.5805z"/>
  <path d="m190.73 119.99 1.7328 0.19927-0.21734 1.7865-1.7328-0.19927z"/>
  <path d="m202.91 124.52s-0.71507 0.32525-1.4699 0.20001c-0.74762-0.12404-1.5762-0.30972-1.4798-1.3584 0.0963-1.0486 1.228-1.119 1.228-1.119s0.82685-0.0134 1.3788 0.21094c0.55199 0.22439 0.5602 0.27997 0.5602 0.27997z"/>
  <path d="m203.12 122.73s-0.30623-0.73163-0.1742-1.5103c0.13073-0.77131 0.32255-1.6267 1.3401-1.542 1.0176 0.0848 1.0704 1.2488 1.0704 1.2488s2e-3 0.85097-0.22383 1.4223c-0.22559 0.57129-0.27971 0.58051-0.27971 0.58051z"/>
  <path d="m204.86 122.93s0.71507-0.32525 1.4698-0.20002c0.74764 0.12405 1.5762 0.30973 1.4798 1.3584-0.0963 1.0486-1.228 1.119-1.228 1.119s-0.82686 0.0134-1.3788-0.21095c-0.55199-0.22439-0.5602-0.27997-0.5602-0.27997z"/>
  <path d="m204.64 124.71s0.30623 0.73163 0.1742 1.5103c-0.13073 0.77131-0.32255 1.6267-1.3401 1.542-1.0176-0.0848-1.0704-1.2488-1.0704-1.2488s-2e-3 -0.85097 0.22383-1.4223c0.22559-0.57129 0.27971-0.58051 0.27971-0.58051z"/>
  <path d="m203.12 122.73 1.7328 0.19927-0.21734 1.7865-1.7328-0.19927z"/>
  <path d="m215.41 126.86s-0.71507 0.32526-1.4699 0.20002c-0.74762-0.12405-1.5762-0.30973-1.4798-1.3584 0.0963-1.0486 1.228-1.119 1.228-1.119s0.82685-0.0134 1.3788 0.21094c0.55199 0.22439 0.5602 0.27997 0.5602 0.27997z"/>
  <path d="m215.63 125.08s-0.30623-0.73163-0.1742-1.5103c0.13073-0.77131 0.32255-1.6267 1.3401-1.542 1.0176 0.0848 1.0704 1.2488 1.0704 1.2488s2e-3 0.85097-0.22383 1.4223c-0.22559 0.57129-0.27971 0.5805-0.27971 0.5805z"/>
  <path d="m217.36 125.28s0.71507-0.32526 1.4698-0.20002c0.74764 0.12405 1.5762 0.30972 1.4798 1.3584-0.0963 1.0486-1.228 1.119-1.228 1.119s-0.82686 0.0134-1.3788-0.21094c-0.55199-0.2244-0.5602-0.27997-0.5602-0.27997z"/>
  <path d="m217.15 127.06s0.30623 0.73163 0.1742 1.5103c-0.13073 0.77131-0.32255 1.6267-1.3401 1.542-1.0176-0.0848-1.0704-1.2488-1.0704-1.2488s-2e-3 -0.85098 0.22383-1.4223c0.22559-0.57129 0.27971-0.5805 0.27971-0.5805z"/>
  <path d="m215.63 125.08 1.7328 0.19927-0.21734 1.7865-1.7328-0.19927z"/>
  <path d="m226.25 129.59s-0.71507 0.32525-1.4699 0.20001c-0.74762-0.12405-1.5762-0.30972-1.4798-1.3584 0.0963-1.0486 1.228-1.119 1.228-1.119s0.82685-0.0134 1.3788 0.21094c0.55199 0.22439 0.5602 0.27997 0.5602 0.27997z"/>
  <path d="m226.47 127.81s-0.30623-0.73163-0.1742-1.5103c0.13073-0.77131 0.32255-1.6267 1.3401-1.542 1.0176 0.0848 1.0704 1.2488 1.0704 1.2488s2e-3 0.85097-0.22383 1.4223c-0.22559 0.57129-0.27971 0.58051-0.27971 0.58051z"/>
  <path d="m228.2 128.01s0.71507-0.32525 1.4698-0.20002c0.74764 0.12405 1.5762 0.30973 1.4798 1.3584-0.0963 1.0486-1.228 1.119-1.228 1.119s-0.82686 0.0134-1.3788-0.21095c-0.55199-0.2244-0.5602-0.27997-0.5602-0.27997z"/>
  <path d="m227.99 129.79s0.30623 0.73163 0.1742 1.5103c-0.13073 0.77131-0.32255 1.6267-1.3401 1.542-1.0176-0.0848-1.0704-1.2488-1.0704-1.2488s-2e-3 -0.85097 0.22383-1.4223c0.22559-0.57129 0.27971-0.5805 0.27971-0.5805z"/>
  <path d="m226.47 127.81 1.7328 0.19927-0.21734 1.7865-1.7328-0.19927z"/>
  <path d="m238.08 132.17s-0.71507 0.32525-1.4699 0.20002c-0.74762-0.12405-1.5762-0.30973-1.4798-1.3584 0.0963-1.0486 1.228-1.119 1.228-1.119s0.82685-0.0134 1.3788 0.21095c0.55199 0.22439 0.5602 0.27996 0.5602 0.27996z"/>
  <path d="m238.3 130.38s-0.30623-0.73163-0.1742-1.5103c0.13073-0.77131 0.32255-1.6267 1.3401-1.542 1.0176 0.0848 1.0704 1.2488 1.0704 1.2488s2e-3 0.85097-0.22383 1.4223c-0.22559 0.57129-0.27971 0.5805-0.27971 0.5805z"/>
  <path d="m240.03 130.58s0.71507-0.32526 1.4698-0.20002c0.74764 0.12405 1.5762 0.30972 1.4798 1.3584-0.0963 1.0486-1.228 1.119-1.228 1.119s-0.82686 0.0134-1.3788-0.21094c-0.55199-0.2244-0.5602-0.27997-0.5602-0.27997z"/>
  <path d="m239.81 132.37s0.30623 0.73163 0.1742 1.5103c-0.13073 0.77131-0.32255 1.6267-1.3401 1.542-1.0176-0.0848-1.0704-1.2488-1.0704-1.2488s-2e-3 -0.85097 0.22383-1.4223c0.22559-0.57129 0.27971-0.5805 0.27971-0.5805z"/>
  <path d="m238.3 130.38 1.7328 0.19927-0.21734 1.7865-1.7328-0.19927z"/>
  <path d="m249.37 134.75s-0.71507 0.32525-1.4699 0.20002c-0.74762-0.12405-1.5762-0.30973-1.4798-1.3584 0.0963-1.0486 1.228-1.119 1.228-1.119s0.82685-0.0134 1.3788 0.21094c0.55199 0.2244 0.5602 0.27997 0.5602 0.27997z"/>
  <path d="m249.59 132.96s-0.30623-0.73163-0.1742-1.5103c0.13073-0.77132 0.32255-1.6267 1.3401-1.542 1.0176 0.0848 1.0704 1.2488 1.0704 1.2488s2e-3 0.85097-0.22383 1.4223c-0.22559 0.57128-0.27971 0.5805-0.27971 0.5805z"/>
  <path d="m251.32 133.16s0.71507-0.32525 1.4698-0.20002c0.74764 0.12405 1.5762 0.30973 1.4798 1.3584-0.0963 1.0486-1.228 1.119-1.228 1.119s-0.82686 0.0134-1.3788-0.21095c-0.55199-0.22439-0.5602-0.27997-0.5602-0.27997z"/>
  <path d="m251.11 134.95s0.30623 0.73163 0.1742 1.5103c-0.13073 0.77131-0.32255 1.6267-1.3401 1.542-1.0176-0.0848-1.0704-1.2488-1.0704-1.2488s-2e-3 -0.85097 0.22383-1.4223c0.22559-0.57129 0.27971-0.58051 0.27971-0.58051z"/>
  <path d="m249.59 132.96 1.7328 0.19927-0.21734 1.7865-1.7328-0.19927z"/>
  <path d="m260.74 137.02s-0.71507 0.32525-1.4699 0.20002c-0.74762-0.12405-1.5762-0.30973-1.4798-1.3584 0.0963-1.0486 1.228-1.119 1.228-1.119s0.82685-0.0134 1.3788 0.21095c0.55199 0.22439 0.5602 0.27996 0.5602 0.27996z"/>
  <path d="m260.96 135.24s-0.30623-0.73163-0.1742-1.5103c0.13073-0.77131 0.32255-1.6267 1.3401-1.542 1.0176 0.0848 1.0704 1.2488 1.0704 1.2488s2e-3 0.85098-0.22383 1.4223c-0.22559 0.57129-0.27971 0.5805-0.27971 0.5805z"/>
  <path d="m262.69 135.44s0.71507-0.32526 1.4698-0.20002c0.74764 0.12405 1.5762 0.30972 1.4798 1.3584-0.0963 1.0486-1.228 1.119-1.228 1.119s-0.82686 0.0134-1.3788-0.21094c-0.55199-0.2244-0.5602-0.27997-0.5602-0.27997z"/>
  <path d="m262.48 137.22s0.30623 0.73163 0.1742 1.5103c-0.13073 0.77131-0.32255 1.6267-1.3401 1.542-1.0176-0.0848-1.0704-1.2488-1.0704-1.2488s-2e-3 -0.85097 0.22383-1.4223c0.22559-0.57129 0.27971-0.5805 0.27971-0.5805z"/>
  <path d="m260.96 135.24 1.7328 0.19927-0.21734 1.7865-1.7328-0.19927z"/>
  <path d="m271.66 139.83s-0.71507 0.32525-1.4699 0.20001c-0.74762-0.12404-1.5762-0.30972-1.4798-1.3584 0.0963-1.0486 1.228-1.119 1.228-1.119s0.82685-0.0134 1.3788 0.21094c0.55199 0.22439 0.5602 0.27997 0.5602 0.27997z"/>
  <path d="m271.88 138.04s-0.30623-0.73163-0.1742-1.5103c0.13073-0.77131 0.32255-1.6267 1.3401-1.542 1.0176 0.0848 1.0704 1.2488 1.0704 1.2488s2e-3 0.85097-0.22383 1.4223c-0.22559 0.57129-0.27971 0.58051-0.27971 0.58051z"/>
  <path d="m273.61 138.24s0.71507-0.32525 1.4698-0.20002c0.74764 0.12405 1.5762 0.30973 1.4798 1.3584-0.0963 1.0486-1.228 1.119-1.228 1.119s-0.82686 0.0134-1.3788-0.21095c-0.55199-0.22439-0.5602-0.27997-0.5602-0.27997z"/>
  <path d="m273.39 140.03s0.30623 0.73163 0.1742 1.5103c-0.13073 0.77131-0.32255 1.6267-1.3401 1.542-1.0176-0.0848-1.0704-1.2488-1.0704-1.2488s-2e-3 -0.85097 0.22383-1.4223c0.22559-0.57129 0.27971-0.58051 0.27971-0.58051z"/>
  <path d="m271.88 138.04 1.7328 0.19927-0.21734 1.7865-1.7328-0.19927z"/>
  <path d="m282.5 142.4s-0.71507 0.32526-1.4699 0.20002c-0.74762-0.12405-1.5762-0.30973-1.4798-1.3584 0.0963-1.0486 1.228-1.119 1.228-1.119s0.82685-0.0134 1.3788 0.21094c0.55199 0.22439 0.5602 0.27997 0.5602 0.27997z"/>
  <path d="m282.72 140.62s-0.30623-0.73163-0.1742-1.5103c0.13073-0.77131 0.32255-1.6267 1.3401-1.542 1.0176 0.0848 1.0704 1.2488 1.0704 1.2488s2e-3 0.85097-0.22383 1.4223c-0.22559 0.57129-0.27971 0.5805-0.27971 0.5805z"/>
  <path d="m284.45 140.82s0.71507-0.32526 1.4698-0.20002c0.74764 0.12405 1.5762 0.30972 1.4798 1.3584-0.0963 1.0486-1.228 1.119-1.228 1.119s-0.82686 0.0134-1.3788-0.21094c-0.55199-0.2244-0.5602-0.27997-0.5602-0.27997z"/>
  <path d="m284.23 142.6s0.30623 0.73163 0.1742 1.5103c-0.13073 0.77131-0.32255 1.6267-1.3401 1.542-1.0176-0.0848-1.0704-1.2488-1.0704-1.2488s-2e-3 -0.85098 0.22383-1.4223c0.22559-0.57129 0.27971-0.5805 0.27971-0.5805z"/>
  <path d="m282.72 140.62 1.7328 0.19927-0.21734 1.7865-1.7328-0.19927z"/>
  <path d="m293.79 144.98s-0.71507 0.32525-1.4699 0.20002c-0.74762-0.12405-1.5762-0.30973-1.4798-1.3584 0.0963-1.0486 1.228-1.119 1.228-1.119s0.82685-0.0134 1.3788 0.21094c0.55199 0.2244 0.5602 0.27997 0.5602 0.27997z"/>
  <path d="m294.01 143.2s-0.30623-0.73163-0.1742-1.5103c0.13073-0.77131 0.32255-1.6267 1.3401-1.542 1.0176 0.0848 1.0704 1.2488 1.0704 1.2488s2e-3 0.85097-0.22383 1.4223c-0.22559 0.57129-0.27971 0.5805-0.27971 0.5805z"/>
  <path d="m295.74 143.39s0.71507-0.32526 1.4698-0.20003c0.74764 0.12405 1.5762 0.30973 1.4798 1.3584-0.0963 1.0486-1.228 1.119-1.228 1.119s-0.82686 0.0134-1.3788-0.21094c-0.55199-0.2244-0.5602-0.27998-0.5602-0.27998z"/>
  <path d="m295.53 145.18s0.30623 0.73163 0.1742 1.5103c-0.13073 0.77131-0.32255 1.6267-1.3401 1.542-1.0176-0.0848-1.0704-1.2488-1.0704-1.2488s-2e-3 -0.85097 0.22383-1.4223c0.22559-0.57129 0.27971-0.58051 0.27971-0.58051z"/>
  <path d="m294.01 143.2 1.7328 0.19926-0.21734 1.7865-1.7328-0.19927z"/>
 </g>
</svg>
